<?xml version="1.0" encoding="UTF-8" standalone="no"?>
<svg
   xmlns:dc="http://purl.org/dc/elements/1.1/"
   xmlns:cc="http://creativecommons.org/ns#"
   xmlns:rdf="http://www.w3.org/1999/02/22-rdf-syntax-ns#"
   xmlns:svg="http://www.w3.org/2000/svg"
   xmlns="http://www.w3.org/2000/svg"
   xmlns:sodipodi="http://sodipodi.sourceforge.net/DTD/sodipodi-0.dtd"
   xmlns:inkscape="http://www.inkscape.org/namespaces/inkscape"
   version="1.1"
   width="24"
   height="24"
   viewBox="0 0 24 24"
   id="svg925"
   sodipodi:docname="tool-text.svg"
   inkscape:version="1.0.1 (3bc2e813f5, 2020-09-07)">
  <metadata
     id="metadata931">
    <rdf:RDF>
      <cc:Work
         rdf:about="">
        <dc:format>image/svg+xml</dc:format>
        <dc:type
           rdf:resource="http://purl.org/dc/dcmitype/StillImage" />
        <dc:title></dc:title>
      </cc:Work>
    </rdf:RDF>
  </metadata>
  <defs
     id="defs929" />
  <sodipodi:namedview
     pagecolor="#ffffff"
     bordercolor="#666666"
     borderopacity="1"
     objecttolerance="10"
     gridtolerance="10"
     guidetolerance="10"
     inkscape:pageopacity="0"
     inkscape:pageshadow="2"
     inkscape:window-width="2556"
     inkscape:window-height="1365"
     id="namedview927"
     showgrid="false"
     inkscape:zoom="25.833333"
     inkscape:cx="20.326024"
     inkscape:cy="8.9443811"
     inkscape:window-x="0"
     inkscape:window-y="1134"
     inkscape:window-maximized="1"
     inkscape:current-layer="svg925" />
  <path
     d="m 13.041063,7.4913279 h -2.180404 v 9.1577091 c 0,0.43608 0,0.872161 0.287813,1.090201 0.296535,0.218041 0.872163,0.218041 1.45651,0.218041 v 0.872162 H 7.3720153 v -0.872162 c 0.5843483,0 1.1599751,0 1.45651,-0.218041 0.2878134,-0.21804 0.2878134,-0.654121 0.2878134,-1.090201 V 7.4913279 H 6.9359344 c -0.5320186,0 -1.0727589,0 -1.5350046,0.3750296 C 4.9386841,8.2501086 4.5374897,9.0088894 4.1450169,9.7676696 L 3.3077417,9.540908 4.3194492,5.7470045 h 8.7216138 z"
     id="path923"
     sodipodi:nodetypes="ccsccccccscscccccc"
     style="stroke-width:0.872161" />
  <path
     d="m 18.710115,5.7452905 h 2.616484 V 7.489614 h -2.616484 v 2.616484 H 16.965791 V 7.489614 H 14.349305 V 5.7452905 h 2.616486 V 3.1288054 h 1.744324 z"
     id="path933"
     sodipodi:nodetypes="ccccccccccccc"
     style="stroke-width:0.872161" />
</svg>
